<svg xmlns="http://www.w3.org/2000/svg" viewBox="30.86 161.08 438.28 324.18"><g id="freepik--Floor--inject-510"><ellipse cx="250" cy="358.74" rx="219.14" ry="126.52" style="fill:#f5f5f5"/></g><g id="freepik--Shadows--inject-510"><path d="M163.45,441.91l51.4-29.68a2.8,2.8,0,0,0,0-4.84l-51.4-29.68a7.79,7.79,0,0,0-7.76,0l-51.4,29.68a2.8,2.8,0,0,0,0,4.84l51.4,29.68A7.79,7.79,0,0,0,163.45,441.91Z" style="fill:#e0e0e0"/><path d="M235.1,400.57,341.73,339a3.83,3.83,0,0,0,0-6.63l-85.25-49.72a8.93,8.93,0,0,0-9,0L140.88,344.2a3.83,3.83,0,0,0,0,6.63l85.26,49.72A8.93,8.93,0,0,0,235.1,400.57Z" style="fill:#e0e0e0"/><ellipse cx="320.58" cy="399.62" rx="47.85" ry="27.62" style="fill:#e0e0e0"/></g><g id="freepik--Character--inject-510"><path d="M226.71,388.33v7.15a2,2,0,0,0,1.19,1.66,6.31,6.31,0,0,0,5.74,0,2,2,0,0,0,1.19-1.66v-7.15Z" style="fill:#ebebeb"/><path d="M326.05,331v7.15a2,2,0,0,0,1.19,1.66,6.38,6.38,0,0,0,5.74,0,2,2,0,0,0,1.19-1.66V331Z" style="fill:#ebebeb"/><path d="M166.49,353.41v7.16a2,2,0,0,0,1.19,1.66,6.38,6.38,0,0,0,5.74,0,2,2,0,0,0,1.19-1.66v-7.16Z" style="fill:#ebebeb"/><polygon points="248.98 202.85 166.9 247.59 166.9 325.44 268.7 270.85 248.98 202.85" style="fill:#455a64"/><path d="M316.7,270.85l0,0-5.13-2.95-49.75-28.44a2.83,2.83,0,0,1-.18-4.81l3.22-2.16-4-27.51a12.66,12.66,0,0,0-6-9l-7.33-4.4a2.33,2.33,0,0,0-3.52,2V293.79a9.72,9.72,0,0,0,5,8.48l69.21,38.65a3.79,3.79,0,0,0,3.68,0h0l.27-.15a3.84,3.84,0,0,0,1.82-3.28V283.43A14.53,14.53,0,0,0,316.7,270.85Z" style="fill:#455a64"/><path d="M156.05,245.19v-.69a9.38,9.38,0,0,1,4.67-8.11L240,190.33a5.67,5.67,0,0,1,5.78,0l8.58,5.17a3.74,3.74,0,0,1,0,6.43l-83.45,49.35Z" style="fill:#37474f"/><path d="M260.35,236.8v78.64l55.28,25.29a7.93,7.93,0,0,0,7.19-.3l8.34-4.71V269.56Z" style="fill:#263238"/><path d="M259.15,376.35l43.73-24.52a13.87,13.87,0,0,0,.4-24l-43.52-26.34a.78.78,0,0,0-.77,0l-67.64,37.39a.77.77,0,0,0,0,1.33l60,36A7.87,7.87,0,0,0,259.15,376.35Z" style="fill:#263238"/><path d="M254.57,373a3.46,3.46,0,0,0,5.16,3l54-30.1a10.14,10.14,0,0,0,5.19-8.85v-5.31L257,369a4.64,4.64,0,0,0-2.4,4.06Z" style="fill:#455a64"/><path d="M258.7,368l57.21-31.46a5.84,5.84,0,0,0,.29-10.06L261,291.84l-69.2,38.24L254.82,368A3.85,3.85,0,0,0,258.7,368Z" style="fill:#37474f"/><path d="M256.36,365.43l57.77-32.77-54.75-43.84-69.2,38.25L254,365.4A2.35,2.35,0,0,0,256.36,365.43Z" style="fill:#263238"/><path d="M254.57,345.6v14.95a3.46,3.46,0,0,0,5.16,3l54.4-30.89a9.52,9.52,0,0,0,4.83-8.3V303.19L258.32,339A7.64,7.64,0,0,0,254.57,345.6Z" style="fill:#455a64"/><path d="M258.76,340.37,316.54,308a4.74,4.74,0,0,0,.13-8.2l-57.29-34.68-69.2,38.25,61.47,36.91A7.06,7.06,0,0,0,258.76,340.37Z" style="fill:#37474f"/><path d="M277.05,230.11a8.65,8.65,0,0,0-9.16.29l-3.07,2.06-3.22,2.16a2.83,2.83,0,0,0,.18,4.81l49.75,28.44,5,2.84c.08,0,.15.11.24.15A14.79,14.79,0,0,1,324,283.91v53.63a3.84,3.84,0,0,1-1.82,3.28l12.29-6.94a9.29,9.29,0,0,0,4.73-8.09v-52a13.06,13.06,0,0,0-6.48-11.28Z" style="fill:#455a64"/><path d="M332.67,262.53l-55.62-32.42a8.65,8.65,0,0,0-9.16.29l-3.07,2.06-3.22,2.16a2.83,2.83,0,0,0,.18,4.81l49.75,28.44,5,2.84c.08,0,.15.11.24.15a13.55,13.55,0,0,1,5.58,6l15.05-9.63A13.15,13.15,0,0,0,332.67,262.53Z" style="fill:#37474f"/><path d="M204.12,177.73s-2.18-16.65,25.22-16.65c22.84,0,22,24.63,7.4,31.71Z" style="fill:#263238"/><circle cx="206.38" cy="183.96" r="9.57" style="fill:#263238"/><path d="M248.36,183.94a7.7,7.7,0,1,1-7.69-7.69A7.69,7.69,0,0,1,248.36,183.94Z" style="fill:#263238"/><circle cx="208.13" cy="196.88" r="9.57" style="fill:#263238"/><circle cx="218.78" cy="202.85" r="9.57" style="fill:#263238"/><path d="M291.77,352.9l19.37,25.73-5.38,4.25S298,381.26,295.27,371A122.32,122.32,0,0,1,291.77,352.9Z" style="fill:#ffa8a7"/><path d="M290,351.15s-5.37,4.87-3,9.24,6.5,7.87,6.63,13.62,3,16,9.37,17.62,12.61-.6,12.49-2.86-4.37-10.14-4.37-10.14-5.86,3.63-10.18.13-5.32-18.24-5.32-18.24Z" style="fill:#FBBB14"/><path d="M290,351.15s-5.37,4.87-3,9.24,6.5,7.87,6.63,13.62,3,16,9.37,17.62,12.61-.6,12.49-2.86-4.37-10.14-4.37-10.14-5.86,3.63-10.18.13-5.32-18.24-5.32-18.24Z" style="opacity:0.2"/><path d="M257,271.48s43.13,18.25,46.63,20,9.62,5,9,19-4.13,48.89-4.13,48.89l-23.65-45.48-61.07-29.06Z" style="fill:#FBBB14"/><path d="M257,271.48s43.13,18.25,46.63,20,9.62,5,9,19-4.13,48.89-4.13,48.89l-23.65-45.48-61.07-29.06Z" style="opacity:0.5"/><path d="M310.23,341.37c-.92,9.94-1.73,18-1.73,18l-23.65-45.48L241.31,293.2l9.89-7.74c13.92,7,34.13,17.13,40.16,20.22,7.69,3.93,10.06,15.07,16.68,30.54C308.74,337.86,309.48,339.59,310.23,341.37Z" style="fill:#FBBB14"/><path d="M310.23,341.37c-.92,9.94-1.73,18-1.73,18l-23.65-45.48L241.31,293.2l9.89-7.74c13.92,7,34.13,17.13,40.16,20.22,7.69,3.93,10.06,15.07,16.68,30.54C308.74,337.86,309.48,339.59,310.23,341.37Z" style="opacity:0.7000000000000001"/><polygon points="253.43 280.78 248.98 287.51 252.46 288.04 253.43 280.78" style="fill:#FBBB14"/><polygon points="253.43 280.78 248.98 287.51 252.46 288.04 253.43 280.78" style="opacity:0.7000000000000001"/><path d="M310.88,388.77s-.62,1-.62,6.24,2,6.23,4.65,7.17,10.22,6.47,12.33,8.9,10.54,5,18.87,3.47,10.11-7,6.09-10.49-15.44-10-15.44-10Z" style="fill:#FBBB14"/><path d="M211,282.25,229.56,278s51.53,25.84,59.21,29.78,10.06,15.07,16.68,30.54c5,11.64,11.48,27.61,15.77,37.2,0,0-3.05,8.1-12.72,6.07h0c-3.28-7.15-9.07-13.55-17.48-24.9-7.29-9.84-10.13-18.53-11.24-23.74a8.34,8.34,0,0,0-6.17-6.39c-8.51-2.07-25.84-6.55-44.14-12.86C203.7,304.78,211,282.25,211,282.25Z" style="fill:#FBBB14"/><path d="M211,282.25,229.56,278s51.53,25.84,59.21,29.78,10.06,15.07,16.68,30.54c5,11.64,11.48,27.61,15.77,37.2,0,0-3.05,8.1-12.72,6.07h0c-3.28-7.15-9.07-13.55-17.48-24.9-7.29-9.84-10.13-18.53-11.24-23.74a8.34,8.34,0,0,0-6.17-6.39c-8.51-2.07-25.84-6.55-44.14-12.86C203.7,304.78,211,282.25,211,282.25Z" style="opacity:0.5"/><path d="M321.22,375.48c1.41,3.16,2.59,5.63,3.39,7,3.23,5.62,12.67,11.71,16,14.58s4,4,.86,6.4c-8,6.16-15-.56-19.5-4.87a56.08,56.08,0,0,0-9.87-7.22,2,2,0,0,1-1-1.41,33.4,33.4,0,0,0-2.61-8.44h0C318.17,383.58,321.22,375.48,321.22,375.48Z" style="fill:#ffa8a7"/><polygon points="230.68 299.87 263.13 318.6 317.07 287.41 284.63 268.3 230.68 299.87" style="fill:#ebebeb"/><polygon points="259.64 294.54 271.81 287.51 264.18 283.11 252.01 290.14 259.64 294.54" style="fill:#e0e0e0"/><polygon points="264.51 313.92 248.11 304.27 280.15 284.88 264.51 313.92" style="fill:#e0e0e0"/><path d="M263.55,256.05l13,6.08A115.59,115.59,0,0,1,288,265.67s9,3.7,9.44,6.12-6.78,8.25-13.09,5.41a20.86,20.86,0,0,0-5.27-1.91c-1.69-.18-6.73-1-10.37-4.44L258.2,268S252.8,257.55,263.55,256.05Z" style="fill:#ffa8a7"/><path d="M272,274.15c1.51,1.61,5.79,5.67,6.73,6.85s3.14-1.85-.73-6.35a36.28,36.28,0,0,1-9.35-5.09A37.66,37.66,0,0,0,272,274.15Z" style="fill:#ffa8a7"/><path d="M237,210.92h0a12.76,12.76,0,0,1,14.1,8.55,56.18,56.18,0,0,1,2.63,12.75c1.13,13.37,1.44,20.05,1.44,20.05l13.43,6.09s-7.25.35-6.76,10.59l-16.73-4.22Z" style="fill:#ffa8a7"/><path d="M254.12,236.93q-.18-2.19-.39-4.71a56.18,56.18,0,0,0-2.63-12.75,12.76,12.76,0,0,0-14.1-8.55l4.91,32.61Z" style="fill:#FBBB14"/><path d="M254.12,236.93q-.18-2.19-.39-4.71a56.18,56.18,0,0,0-2.63-12.75,12.76,12.76,0,0,0-14.1-8.55l4.91,32.61Z" style="opacity:0.2"/><path d="M255.17,252.27a9.32,9.32,0,0,0-4,2.44s1.62-3.08,3.89-4Z" style="fill:#f28f8f"/><path d="M215.81,216.23l-9.43,4v27.63a61.2,61.2,0,0,1,4.72,22.3v13.68s19.26,6.86,34.2-.56c7.24-3.6,11.71-11.81,11.71-11.81s-8-4.68-8-10.4a79.5,79.5,0,0,1,1.59-13.3,16,16,0,0,0,4.59-13.4c-1.06-9.12-18.23-23.46-18.23-23.46l-6.4.88Z" style="fill:#FBBB14"/><polygon points="215.81 216.23 230.6 211.8 230.6 193.9 215.81 193.9 215.81 216.23" style="fill:#ffa8a7"/><path d="M230.6,211.8A23.81,23.81,0,0,1,217,198.87v-5H230.6Z" style="fill:#f28f8f"/><path d="M234.05,169.65s13.53.79,11.85,23.92c-.77,10.7-3.27,16.24-11.51,15.83-9.33-.46-22.58-6.87-21.71-25.17S234.05,169.65,234.05,169.65Z" style="fill:#ffa8a7"/><path d="M215.81,193.9s3.71,1,3.71-4.34c0,0,16.48-1.12,20.12-17.47,0,0-1.63-4.9-11.92-4.9s-18.94,9.1-16.25,21.61Z" style="fill:#263238"/><polygon points="235.99 188.93 235.99 196.88 240.64 195.45 235.99 188.93" style="fill:#f28f8f"/><path d="M229,189.77a1.62,1.62,0,1,0,1.62-1.62A1.62,1.62,0,0,0,229,189.77Z" style="fill:#263238"/><path d="M239.64,188.65a1.62,1.62,0,1,0,1.62-1.62A1.62,1.62,0,0,0,239.64,188.65Z" style="fill:#263238"/><path d="M243.23,185.27l-3.17-1.88s1.22-1.26,2.43-.5A2.2,2.2,0,0,1,243.23,185.27Z" style="fill:#263238"/><path d="M235.58,199.52a8.24,8.24,0,0,1-5.21-1.4s-.36,2.75,1.94,3.27S235.58,199.52,235.58,199.52Z" style="fill:#f28f8f"/><path d="M217.12,194.5a9,9,0,0,0-.73-3.93,4.15,4.15,0,0,0-3.6-2.81c-4.16-.12-4.72,3.88-4.66,5.31.15,3.74,3.17,7.78,8.81,7.93Z" style="fill:#ffa8a7"/><path d="M230.6,211.8l4.36,5.67a5.51,5.51,0,0,1-1.81,8.25h0a9.42,9.42,0,0,1-11.72-2.46l-5.62-7Z" style="fill:#ffa8a7"/><path d="M230.68,280l12.37,6.73a36.7,36.7,0,0,1,5.69,0c2.18.26,8,1.32,9.49,1.39s.06,2.87-3.87,2.62c0,0,8.87,4.06,9.18,6.5s-7.11,8-13.31,4.87a20.08,20.08,0,0,0-5.18-2.13c-1.69-.25-6.68-1.25-10.18-4.87l-10.37-3.31S219.88,281.07,230.68,280Z" style="fill:#ffa8a7"/><path d="M206.38,220.24s7.51,5.19,6.26,21.14a187.66,187.66,0,0,0,0,29.07L230.68,280a13.78,13.78,0,0,0-6.18,11.8s-25.94-5.34-27.49-11.38-2.12-34.94-2.12-40S197,224.26,206.38,220.24Z" style="fill:#ffa8a7"/><path d="M194.89,240.47c0,2.13.11,8.54.34,15.68a24.14,24.14,0,0,0,16.85.5h0c0-4.45.12-9.69.56-15.27,1.25-15.95-6.26-21.14-6.26-21.14C197,224.26,194.89,235.44,194.89,240.47Z" style="fill:#FBBB14"/><path d="M194.89,240.47c0,2.13.11,8.54.34,15.68a24.14,24.14,0,0,0,16.85.5h0c0-4.45.12-9.69.56-15.27,1.25-15.95-6.26-21.14-6.26-21.14C197,224.26,194.89,235.44,194.89,240.47Z" style="opacity:0.2"/><path d="M212.62,270.45a14.51,14.51,0,0,0-5.8,1.06,12.46,12.46,0,0,1,5.69-2.5Z" style="fill:#f28f8f"/><path d="M324.59,251.67,319,288.59s0,0,0,.06l-56,32.49a.09.09,0,0,1-.13-.09l5.47-35.8a5.35,5.35,0,0,1,2.48-3.72L322.09,250A1.66,1.66,0,0,1,324.59,251.67Z" style="fill:#fafafa"/><path d="M262.88,321.14,233,303.81a4.58,4.58,0,0,1-2.27-3.94h0l32.45,18.73Z" style="fill:#e0e0e0"/><path d="M292.16,287.25c0,2.63,1.86,3.7,4.14,2.38a9.14,9.14,0,0,0,4.13-7.16c0-2.64-1.85-3.7-4.13-2.39A9.17,9.17,0,0,0,292.16,287.25Z" style="fill:#e0e0e0"/><path d="M237,249.76s-11.31,3.08-17.31-5.42C219.69,244.34,223.57,255.31,237,249.76Z" style="opacity:0.2"/><path d="M205.63,173.78s-2.75-7-4.4-6.15,1.7,5.29,1.7,5.29-5.62-2.2-6.09-.9,7.18,4.23,7.18,4.23Z" style="fill:#263238"/><path d="M228.76,322.51c-.08,0-.14-.1-.22-.14l-5-2.84,5.13,3Z" style="fill:none"/><path d="M228.76,322.51l0,0-5.13-3-49.75-28.44a2.83,2.83,0,0,1-.17-4.81l3.21-2.16-4-27.5a12.62,12.62,0,0,0-6-9l-7.33-4.39a2.32,2.32,0,0,0-3.52,2V345.45a9.73,9.73,0,0,0,5,8.48l69.21,38.65a3.8,3.8,0,0,0,3.67.05h0l.27-.15A3.83,3.83,0,0,0,236,389.2V335.09A14.54,14.54,0,0,0,228.76,322.51Z" style="fill:#263238"/><path d="M189.11,281.78a8.63,8.63,0,0,0-9.16.28l-3.08,2.06-3.21,2.16a2.83,2.83,0,0,0,.17,4.81l49.75,28.44,5,2.84.24.16a14.76,14.76,0,0,1,7.22,13V389.2a3.83,3.83,0,0,1-1.82,3.28l12.3-6.93a9.29,9.29,0,0,0,4.72-8.1v-52a13,13,0,0,0-6.47-11.27Z" style="fill:#455a64"/><path d="M244.73,314.2l-55.62-32.42a8.63,8.63,0,0,0-9.16.28l-3.08,2.06-3.21,2.16a2.83,2.83,0,0,0,.17,4.81l49.75,28.44,5,2.84.24.16a13.6,13.6,0,0,1,5.59,6l15-9.62A13,13,0,0,0,244.73,314.2Z" style="fill:#37474f"/></g><g id="freepik--side-table--inject-510"><polygon points="206.3 347.92 206.3 413.06 158.81 385.64 158.81 320.5 206.3 347.92" style="fill:#FBBB14"/><polygon points="206.3 347.92 206.3 413.06 158.81 385.64 158.81 320.5 206.3 347.92" style="opacity:0.4"/><polygon points="210.05 345.83 210.05 410.98 206.3 413.06 206.3 347.92 210.05 345.83" style="fill:#FBBB14"/><polygon points="162.56 373.25 162.56 438.39 115.08 410.98 115.08 345.83 162.56 373.25" style="fill:#FBBB14"/><polygon points="162.56 373.25 162.56 438.39 115.08 410.98 115.08 345.83 162.56 373.25" style="opacity:0.4"/><polygon points="166.32 371.17 166.32 436.31 162.56 438.39 162.56 373.25 166.32 371.17" style="fill:#FBBB14"/><polygon points="162.56 378.44 210.05 351.03 210.05 345.83 162.56 373.25 162.56 378.44" style="fill:#FBBB14"/><polygon points="162.56 438.39 210.05 410.98 210.05 373.56 162.56 400.98 162.56 438.39" style="fill:#FBBB14"/><polygon points="162.56 373.25 210.05 345.83 162.56 318.42 115.08 345.83 162.56 373.25" style="fill:#FBBB14"/><polygon points="162.56 373.25 210.05 345.83 162.56 318.42 115.08 345.83 162.56 373.25" style="opacity:0.2"/><polygon points="166.32 399.78 206.3 376.7 206.3 353.18 166.32 376.26 166.32 399.78" style="fill:#FBBB14"/><polygon points="166.32 399.78 206.3 376.7 206.3 353.18 166.32 376.26 166.32 399.78" style="fill:#fff;opacity:0.6000000000000001"/><path d="M185.9,374.53a2.91,2.91,0,1,0,2.91-2.91A2.91,2.91,0,0,0,185.9,374.53Z" style="fill:#fff"/><polygon points="166.32 429.05 206.3 405.97 206.3 382.45 166.32 405.53 166.32 429.05" style="fill:#FBBB14"/><polygon points="166.32 429.05 206.3 405.97 206.3 382.45 166.32 405.53 166.32 429.05" style="fill:#fff;opacity:0.6000000000000001"/><path d="M185.9,403.8a2.91,2.91,0,1,0,2.91-2.91A2.91,2.91,0,0,0,185.9,403.8Z" style="fill:#fff"/></g><g id="freepik--Lamp--inject-510"><path d="M150.12,341.4a7.22,7.22,0,0,1,2.88-2.78c4.51-2.6,11.82-2.6,16.33,0a7.22,7.22,0,0,1,2.88,2.78h.5v1.94h0c0,1.71-1.12,3.41-3.38,4.71-4.51,2.61-11.82,2.61-16.33,0-2.26-1.3-3.39-3-3.39-4.71h0V341.4Z" style="fill:#263238"/><path d="M153,346.11c4.51,2.61,11.82,2.61,16.33,0s4.51-6.82,0-9.43-11.82-2.6-16.33,0S148.49,343.51,153,346.11Z" style="fill:#37474f"/><path d="M160.92,286.14h.49a2.26,2.26,0,0,1,2.26,2.26v53a0,0,0,0,1,0,0h-5a0,0,0,0,1,0,0v-53a2.26,2.26,0,0,1,2.26-2.26Z" transform="translate(322.33 627.54) rotate(-180)" style="fill:#263238"/><path d="M138.78,307.08h0c.07-.27.16-.55.26-.82l7.08-22.52h30.09l7.08,22.52c.1.27.19.55.26.82h0c1,3.94-1.15,8.09-6.39,11.12-8.84,5.09-23.16,5.09-32,0C139.93,315.17,137.8,311,138.78,307.08Z" style="fill:#FBBB14"/><path d="M138.78,307.08h0c.07-.27.16-.55.26-.82l7.08-22.52h30.09l7.08,22.52c.1.27.19.55.26.82h0c1,3.94-1.15,8.09-6.39,11.12-8.84,5.09-23.16,5.09-32,0C139.93,315.17,137.8,311,138.78,307.08Z" style="fill:#fff;opacity:0.4"/><ellipse cx="161.16" cy="285" rx="15.2" ry="8.77" style="fill:#FBBB14"/><path d="M161.16,276.22V278a20.08,20.08,0,0,1,9.86,2.33c2.29,1.32,3.56,3,3.56,4.66s-1.27,3.33-3.56,4.66a22,22,0,0,1-19.71,0c-2.29-1.33-3.56-3-3.56-4.66s1.27-3.34,3.56-4.66a20.06,20.06,0,0,1,9.85-2.33v-1.79m0,0a22,22,0,0,0-10.74,2.57c-5.94,3.43-5.94,9,0,12.41a23.75,23.75,0,0,0,21.49,0c5.94-3.42,5.94-9,0-12.41a22,22,0,0,0-10.75-2.57Z" style="fill:#FBBB14"/><path d="M161.16,276.22V278a20.08,20.08,0,0,1,9.86,2.33c2.29,1.32,3.56,3,3.56,4.66s-1.27,3.33-3.56,4.66a22,22,0,0,1-19.71,0c-2.29-1.33-3.56-3-3.56-4.66s1.27-3.34,3.56-4.66a20.06,20.06,0,0,1,9.85-2.33v-1.79m0,0a22,22,0,0,0-10.74,2.57c-5.94,3.43-5.94,9,0,12.41a23.75,23.75,0,0,0,21.49,0c5.94-3.42,5.94-9,0-12.41a22,22,0,0,0-10.75-2.57Z" style="fill:#fff;opacity:0.2"/></g></svg>